<svg width="108" height="150" viewBox="0 0 108 150" fill="none" xmlns="http://www.w3.org/2000/svg">
<path d="M95.936 106.763C87.5413 103.759 68.2978 101.485 68.2978 70.1677H55.1528H52.9034H39.7584C39.7584 101.485 20.5149 103.759 12.1202 106.763C12.1202 128.065 47.5716 128.72 52.9034 130.705V131.397C52.9034 131.397 53.318 131.312 54.0281 131.091C54.7382 131.312 55.1528 131.397 55.1528 131.397V130.705C60.4846 128.72 95.936 128.065 95.936 106.763Z" fill="#F3D8B6"/>
<path d="M68.2978 70.1682H55.1529H54.0844V131.108C54.7585 131.316 55.1529 131.397 55.1529 131.397V130.705C60.4846 128.72 95.9361 128.065 95.9361 106.763C87.5414 103.759 68.2978 101.485 68.2978 70.1682Z" fill="#EEC8A2"/>
<path d="M54.029 80.3999C41.6827 80.3999 32.2591 70.0031 28.0363 62.2065C23.8135 54.4099 20.8913 30.9764 29.988 18.631C38.8959 6.54149 54.029 7.91085 54.029 7.91085C54.029 7.91085 69.1613 6.54149 78.0696 18.631C87.1654 30.9764 84.2423 54.4099 80.0191 62.2065C75.7954 70.0031 66.3731 80.3999 54.029 80.3999Z" fill="#F3DBC4"/>
<path d="M78.07 18.631C69.4653 6.95385 55.0575 7.83258 54.0848 7.90633V80.3981C66.4014 80.367 75.8021 69.9909 80.0199 62.2065C84.2423 54.4098 87.1658 30.9769 78.07 18.631Z" fill="#EDCEAE"/>
<path d="M69.6204 11.6556C69.6204 11.6556 58.6354 -3.10071 51.7638 0.593648C34.2049 10.0335 31.8781 8.85255 27.9387 10.221C18.3864 13.5385 18.1359 9.05402 19.3393 16.4162C23.3323 40.844 19.0889 52.0948 26.5172 43.0151C33.9455 33.9355 36.422 36.0793 55.3314 34.0156C74.2407 31.9519 62.1921 23.509 72.0965 30.337C82.0009 37.1649 83.3028 49.5539 84.9533 49.5539C86.6041 49.5539 90.2778 25.9037 87.7788 18.564C82.4443 2.89571 69.6204 11.6556 69.6204 11.6556Z" fill="#682234"/>
<path d="M87.7792 18.5645C82.4448 2.89571 69.6209 11.656 69.6209 11.656C69.6209 11.656 60.8538 -0.119589 54.0848 0.00228226V34.1469C54.4954 34.1042 54.9046 34.0623 55.3318 34.0156C74.2407 31.9523 62.1926 23.509 72.097 30.337C82.0018 37.1653 83.3033 49.5539 84.9537 49.5539C86.6046 49.5544 90.2783 25.9046 87.7792 18.5645Z" fill="#581A2B"/>
<path d="M107.985 131.705L107.929 150H0.0153809L0.0715945 131.705C0.0715945 118.02 7.88619 106.088 18.332 99.8148C21.0496 98.1774 28.9856 96.9231 32.2029 96.1289C34.88 95.4598 54.0776 114.911 54.0776 114.911C54.0776 114.911 74.5259 95.4598 77.203 96.1289C80.4202 96.9231 87.0075 98.1769 89.7247 99.8148C100.171 106.088 107.985 118.02 107.985 131.705Z" fill="#66A299"/>
<path d="M89.6757 99.8148C86.9581 98.1774 80.3712 96.9236 77.154 96.1294C74.4769 95.4603 54.0776 114.912 54.0776 114.912L54.0353 150H107.936V131.705C107.936 118.02 100.122 106.088 89.6757 99.8148Z" fill="#5A9291"/>
<path d="M91.1067 131.607H67.7218V136.704H91.1067V131.607Z" fill="#B7CAE9"/>
<path d="M88.5577 134.906H70.2708V146.598H88.5577V134.906Z" fill="#B7CAE9"/>
<path d="M72.9137 44.7762H60.4617C59.9288 44.7762 59.4022 44.8855 58.9187 45.0969L54.0286 46.8386L49.1384 45.0969C48.655 44.8855 48.1284 44.7762 47.5955 44.7762H35.144C32.6665 44.7762 31.8112 49.0368 31.8112 49.0368C31.8112 54.6725 35.9444 59.2416 42.4944 59.2416C46.4888 59.2416 50.3234 54.9963 52.6799 51.5601H55.3782C57.7346 54.9963 61.5698 59.2416 65.5636 59.2416C72.1136 59.2416 76.2469 54.6725 76.2469 49.0368C76.246 49.0372 75.3911 44.7762 72.9137 44.7762Z" fill="#A7B8D4"/>
<path d="M72.9136 44.7762H60.4617C59.9287 44.7762 59.4021 44.8855 58.9187 45.0969L54.0848 46.8188V51.5606H55.3777C57.7342 54.9968 61.5693 59.242 65.5632 59.242C72.1132 59.242 76.2464 54.673 76.2464 49.0372C76.2464 49.0372 75.3911 44.7762 72.9136 44.7762Z" fill="#8AA4C2"/>
<path d="M86.2114 51.5525C87.7238 47.5609 87.058 43.6082 84.7244 42.724C82.3907 41.8399 79.2729 44.3589 77.7605 48.3506C76.2481 52.3423 76.9139 56.2949 79.2475 57.1791C81.5811 58.0633 84.699 55.5442 86.2114 51.5525Z" fill="#EDCEAE"/>
<path d="M21.8417 51.5517C23.3541 55.5433 26.472 58.0624 28.8056 57.1782C31.1392 56.294 31.805 52.3414 30.2926 48.3497C28.7802 44.3581 25.6624 41.839 23.3287 42.7232C20.9951 43.6073 20.3293 47.56 21.8417 51.5517Z" fill="#F3DBC4"/>
</svg>
